/* XPM */
static const char * logo_128_xpm[] = {
"128 128 2 1",
" 	c None",
".	c #0C84A2",
"                                          ........                ....................                                          ",
"                                      .............              .........................                                      ",
"                                    .................            ...........................                                    ",
"                                   ..................             ...........................                                   ",
"                                 .....................             ............................                                 ",
"                                ........................            ............................                                ",
"                               .........................             ............................                               ",
"                              ...........................             ............................                              ",
"                             .............................             ............................                             ",
"                            ...............................             ............................                            ",
"                           .................................             ............................                           ",
"                          ...................................             ............................                          ",
"                         .....................................             ............................                         ",
"                        .......................................             ............................                        ",
"                       .........................................             ............................                       ",
"                      ............................................            ............................                      ",
"                     .............................................             ............................                     ",
"                    ...............................................             ............................                    ",
"                   ................................................              ............................                   ",
"                  .................................................               ............................                  ",
"                 ................................                                  ............................                 ",
"                ..............................                                      ............................                ",
"               .............................                                         ............................               ",
"              ............................                                            ............................              ",
"             ............................                                              ............................             ",
"            ............................                                                ............................            ",
"           ............................                                                  ............................           ",
"          ............................                                                    ............................          ",
"         ............................                                                      ............................         ",
"        ............................                                                        ............................        ",
"       ............................                                                          ............................       ",
"      ............................                                                            ............................      ",
"     ............................                                                              ............................     ",
"    ............................                                                                ............................    ",
"    ...........................                                                                  ............................   ",
"   ...........................                                                                    ...........................   ",
"  ...........................                                                                      ...........................  ",
"  ..........................                                                                        ..........................  ",
" ..........................                                                                          .......................... ",
" .........................                                                                            ......................... ",
" ........................                                                                              ........................ ",
" .......................                                                                                ........................",
".......................                                                                                  .......................",
"......................                                                                                   .......................",
".....................                                                                                     ......................",
"....................                                                                                      ......................",
"...................                                                                                        .....................",
"..................                                                                                         .....................",
".................                                                                                          .....................",
"................                                                                                            ....................",
"...............                                                                                             ....................",
"..............                                                                                              ..................  ",
".............                                                                                               .................   ",
"............                                                                                                .................   ",
"...........                                                                                                 ................    ",
"..........                                                                                                  ..............      ",
".........                                                                                                   ..............      ",
"........                                                                                                    .............       ",
".......                                                                                                     ...........         ",
"......                                                                                                      ...........         ",
".....                                                                                                       ..........          ",
"....            ....                                                                                        ........            ",
" ..            .....                                                                                        ........            ",
"              ......                                                                                        .......             ",
"             .......                                                                                        .....               ",
"            ........                                                                                        .....            .. ",
"           .........                                                                                        ....            ....",
"          ..........                                                                                                       .....",
"         ...........                                                                                                      ......",
"        ............                                                                                                     .......",
"       .............                                                                                                    ........",
"      ..............                                                                                                   .........",
"     ...............                                                                                                  ..........",
"    ................                                                                                                 ...........",
"   .................                                                                                                ............",
"  ..................                                                                                               .............",
" ...................                                                                                              ..............",
" ...................                                                                                             ...............",
"....................                                                                                            ................",
".....................                                                                                          .................",
".....................                                                                                         ..................",
".....................                                                                                        ...................",
"......................                                                                                      ....................",
"......................                                                                                     .....................",
".......................                                                                                   ......................",
".......................                                                                                  .......................",
" .......................                                                                                ........................",
" ........................                                                                              ........................ ",
" .........................                                                                            ......................... ",
" ..........................                                                                          .......................... ",
"  ..........................                                                                        ..........................  ",
"  ...........................                                                                      ...........................  ",
"   ...........................                                                                    ...........................   ",
"   ............................                                                                  ............................   ",
"    ............................                                                                ............................    ",
"     ............................                                                              ............................     ",
"      ............................                                                            ............................      ",
"       ............................                                                          ............................       ",
"        ............................                                                        ............................        ",
"         ............................                                                      ............................         ",
"          ............................                                                    ............................          ",
"           ............................                                                  ............................           ",
"            ............................                                                ............................            ",
"             ............................                                              ............................             ",
"              ............................                                           .............................              ",
"               ............................                                         .............................               ",
"                ............................                                      ..............................                ",
"                 ............................                                  ................................                 ",
"                  ............................               .................................................                  ",
"                   ............................              ................................................                   ",
"                    ............................             ...............................................                    ",
"                     ............................            ..............................................                     ",
"                      ............................             ...........................................                      ",
"                       ............................            ..........................................                       ",
"                        ............................            ........................................                        ",
"                         ............................             .....................................                         ",
"                          ............................             ...................................                          ",
"                           ............................            ..................................                           ",
"                            ............................            ................................                            ",
"                             ............................             .............................                             ",
"                              ............................            ............................                              ",
"                               ............................            ..........................                               ",
"                                ............................             .......................                                ",
"                                 ............................            ......................                                 ",
"                                  ............................            ....................                                  ",
"                                    ...........................             ................                                    ",
"                                      .........................             ..............                                      ",
"                                         .....................               ..........                                         "};
