/* XPM */
static const char * visard_65_64_xpm[] = {
"64 64 178 2",
"  	c None",
". 	c #000000",
"+ 	c #000000",
"@ 	c #000000",
"# 	c #000000",
"$ 	c #000000",
"% 	c #000000",
"& 	c #000000",
"* 	c #000000",
"= 	c #000000",
"- 	c #000000",
"; 	c #000000",
"> 	c #000000",
", 	c #000000",
"' 	c #000000",
") 	c #000000",
"! 	c #000000",
"~ 	c #000000",
"{ 	c #000000",
"] 	c #000000",
"^ 	c #000000",
"/ 	c #000000",
"( 	c #000000",
"_ 	c #000000",
": 	c #CECECE",
"< 	c #B4B4B5",
"[ 	c #B1B1B2",
"} 	c #CFCFCF",
"| 	c #FEFEFE",
"1 	c #FEFEFE",
"2 	c #838283",
"3 	c #858485",
"4 	c #808080",
"5 	c #E2E2E3",
"6 	c #F3F3F3",
"7 	c #3B3A3B",
"8 	c #3C3B3C",
"9 	c #3E3D3E",
"0 	c #3B393A",
"a 	c #3A393A",
"b 	c #373636",
"c 	c #3D3C3D",
"d 	c #393839",
"e 	c #3F3E3F",
"f 	c #383737",
"g 	c #343334",
"h 	c #313031",
"i 	c #333233",
"j 	c #E9372D",
"k 	c #3E3C3D",
"l 	c #3E3D3C",
"m 	c #3A3938",
"n 	c #363435",
"o 	c #3D3B3C",
"p 	c #3D3C3C",
"q 	c #E7372D",
"r 	c #363734",
"s 	c #3C3A3B",
"t 	c #121212",
"u 	c #302F30",
"v 	c #E8372D",
"w 	c #E8392E",
"x 	c #E2372C",
"y 	c #2C2C2D",
"z 	c #2A2A26",
"A 	c #2E2F2C",
"B 	c #383836",
"C 	c #333331",
"D 	c #EC382D",
"E 	c #282922",
"F 	c #3F403E",
"G 	c #E5362B",
"H 	c #2E2D2E",
"I 	c #E03529",
"J 	c #393738",
"K 	c #D93429",
"L 	c #3A3B39",
"M 	c #EA382E",
"N 	c #E5382E",
"O 	c #30312E",
"P 	c #DC3428",
"Q 	c #EB372D",
"R 	c #ED382E",
"S 	c #2C2D29",
"T 	c #EB3A2F",
"U 	c #2A292B",
"V 	c #0E0E0E",
"W 	c #3B3C3A",
"X 	c #D4352A",
"Y 	c #D03429",
"Z 	c #242523",
"` 	c #CB3328",
" .	c #141415",
"..	c #1A1B16",
"+.	c #C63126",
"@.	c #D53226",
"#.	c #3A393B",
"$.	c #5E2A22",
"%.	c #171810",
"&.	c #23241D",
"*.	c #622A22",
"=.	c #1E1E1B",
"-.	c #672922",
";.	c #C03025",
">.	c #B93025",
",.	c #55261E",
"'.	c #DD372D",
").	c #582A23",
"!.	c #6C2B24",
"~.	c #414142",
"{.	c #4D251C",
"].	c #272629",
"^.	c #45231B",
"/.	c #5B261E",
"(.	c #802D25",
"_.	c #CF3125",
":.	c #202022",
"<.	c #7A2B24",
"[.	c #712A22",
"}.	c #872D26",
"|.	c #19181A",
"1.	c #512922",
"2.	c #FFFFFF",
"3.	c #3D221A",
"4.	c #B03026",
"5.	c #8E2E26",
"6.	c #303138",
"7.	c #EE392E",
"8.	c #A63027",
"9.	c #9D3027",
"0.	c #752C25",
"a.	c #952F27",
"b.	c #352019",
"c.	c #49271F",
"d.	c #2B2C34",
"e.	c #474549",
"f.	c #2D1F1A",
"g.	c #504E53",
"h.	c #734546",
"i.	c #281616",
"j.	c #60484B",
"k.	c #1D1313",
"l.	c #4E373A",
"m.	c #705458",
"n.	c #663939",
"o.	c #884B4C",
"p.	c #833C3B",
"q.	c #D44540",
"r.	c #363740",
"s.	c #826267",
"t.	c #A14444",
"u.	c #3C292B",
"v.	c #B27F83",
"w.	c #585760",
"x.	c #946B6F",
"y.	c #9B5758",
"z.	c #BE4543",
"A.	c #BE8B8F",
"B.	c #A67277",
"C.	c #CB979A",
"D.	c #B85457",
"E.	c #EC4C47",
"F.	c #F06666",
"G.	c #CE5454",
"H.	c #511917",
"I.	c #DE504E",
"J.	c #EBE8F0",
"K.	c #32384F",
"L.	c #D5696B",
"M.	c #D1CED5",
"N.	c #69616B",
"O.	c #BAB8BE",
"P.	c #757279",
"Q.	c #969498",
"R.	c #A4A2A7",
"S.	c #C59FDA",
"T.	c #87818F",
"U.	c #9C7FB8",
"                                                                                                                                ",
"                                                                                                                                ",
"                                                                                                                                ",
"                                                                                                                                ",
"                                                                                                                                ",
"                                                                                                                                ",
"                                                                                                                                ",
"                                                                                                                                ",
"                                                                                                                                ",
"                                                                                                                                ",
"                                                                                                                                ",
"                                                                                                                                ",
"                                                                                                                                ",
"                                                                                                                                ",
"e 8 p s e s e 9 7 0 l s e 9 0 0 0 o 9 k c a k e k s p 0 s 0 7 7 s 8 e a e 7 e 9 9 p a 9 9 c o s 7 7 k s k 8 7 o c d 8 0 l 7 7 0 ",
"c H H s c 9 c k c l e a 9 0 8 9 7 e a c a s a c e o l k e 0 a H y 0 l s 8 a c p 0 k l 9 9 a d 0 7 c o 9 8 a a a a o k s s H H a ",
"e g H s e p e e s 7 9 s e l 7 7 0 o 9 9 c 0 k e k s p 0 s 7 s h y 8 9 0 e 7 9 k l c 0 9 k c o 8 7 0 9 7 9 8 7 8 c d o 7 c h H a ",
"9 9 s e l 7 9 9 8 8 o 9 8 9 8 7 9 7 e 9 9 c e s 7 8 s 7 7 o e k 9 9 0 o 8 9 s o 9 8 a 7 7 9 9 e 9 8 c 7 9 e 9 l 9 s a o o 0 8 8 ",
"8 o e 7 o e o o 9 c 9 c 8 8 e e d e 7 8 7 8 7 c 9 9 9 e l o a s 0 a p 7 7 a o 7 a 9 9 8 9 7 7 b 8 9 8 9 8 d d a a l 9 0 7 9 s s ",
"7 s e k s 9 8 8 e 9 8 i ` '.w N w N N N '. .7 c 9 e c 9 e o s 8 7 a 8 8 0 8 s 7 7 8 V X '.q x q q x x '.d s o a a l 9 p #.c p 7 ",
"e s p s e 8 9 9 8 d '.N N w T w N N N w T w x |.l 7 p 7 7 7 7 7 7 8 9 a 9 7 9 9 V '.x q v M q Q v M v q N X 8 c c a 8 7 k 7 7 0 ",
"7 8 e k s 9 8 8 j.N N T w w w w T w N N M w w w '.e 9 9 e p 8 o 7 7 s c #.8 8 X v v q M v q q N N j M M w M M ).7 k c p #.c c 7 ",
"9 e 7 9 c 8 c 9.N x N 7.T 7.N w T T N T w w M w w N 7 8 7 c 9 c 9 e 8 9 c 9 '.N j M M v j w v v v q M M T D T N '.8 8 c o 7 7 p ",
"c 9 s e c 8 !.w 7.w w N w w T T D.E.w w N N w D N w N c 8 9 e e c k #.9 7 '.N R N v M v w w F.D.w w N M M M D M v z.7 c s 8 c o ",
"0 e 9 c 7 V w R w w w 7.w A.e k Z J 8 e E.Q T v M q q ).c e c 9 8 7 7 c j.w N v M w q F.e 0 b Z o k v.v v Q R j Q q U c 7 7 k l ",
"k 7 9 8 9 w M R T T j B.9 =.&.E z B r O 0 B.q G v M x x c #.#.#.8 7 9 #.x M 7.j q j s.o =.:.Z S m C A p l.j j G G j q 7 7 p a a ",
"0 c e c n.N M D 7.j C.V &.z S A F F l W r A u 8.G I G N q c 7 c 8 7 7 K R q j 7.q ~...Z z S A F l p m C Z m.;.G x G q V #.o o o ",
"c p c 7 x M N D v h.d :.S A A z W F F F W B y m.}.4.x x q d #.7 7 7 c q v D j q C.=.Z S A O z L ~.F F W r d o.a.` '.x x a k a 7 ",
"8 e o 9 N D w R M e &.z A O %...E z S F F W r 0 (.}.9.` G =.8 k 8 c V M M R j x s &.S A O %.E z z z F W B C :.5.9.8.P K d d p p ",
"l 8 c V w D M v L.J E A A %.%.E E E z z W W m d s 0.}.a.8.;.d d #.a Y N v j v C.&.z A O %.%.E E z S z W m r d 0.(.5.a.>.:.a f d ",
"8 8 9 p.N D Q N A.=.z A ..%.%.E O &.z S C L m A |.0.<.5.5.9.n b d #.'.N G G x d Z S S ....z r O E z S g m B e n <.(.5.9.h.b b f ",
"9 8 7 +.R j v x s.&.S A ....z t :.r.&.r B W r C k -.0.(.}.}.n n d 7 x x G q x l Z z O ....S  .].|.r B r m r O N.[.(.(.}.t.h g b ",
"e o 7 Y j M j I s.&.S O ....S t V V &.B r B B C p ,.[.0.(.}.i g f J X x G '.I l E A O =.=.E d.V V r B r B r O m.-.!.0.5.o.h h g ",
"7 7 9 D.Q v q I y.].S A =.Z O &.A &.F F F m r C t /.*.[.(.0.h h h g 4.X x '.P H Z A O =.O A &.B &.F ~.l B r w.=.-.0.}.<.h.i h h ",
"7 8 e  .v G q I N o S A O C C B L l F F m B r e.|./.-.!.<.0.u h h i 5.>.'.I K h.d S O C g C L L ~.~.F B r r 0 {.,.-.-.<.:.u u h ",
"c c 7 8 v q G I P Z z A O F O p W L ~.L m B r k ^.$.-.!.[.=.h n n n V a.` P P @.p z A F ~.C W 8 W F m b r g |.{./.*.0.0.y H i g ",
"0 c 9 c I G x I P +.7 S l F F F l L L m B B ~.|.^.,.$.-.$.H y u h i g a.;.X X @./.d.A F ~.F l p W m m r r s 3.{./.!.[.[.y h h i ",
"o 9 7 8 i.x x I I @.3.d L W l l W L L B B g.f.3.{.,.$.*.!.H h g n n g a.8.X X @.@.3.~.L p F p W W m B r s  .,.{.$.$.-.V y H i n ",
"0 l 8 8 a v x I I P @.].7 B L W L L m B k i.^.{.,.,.*.!.H H H g g i g b 8.` K X @._.[.8 m W W W m B ~.0 t ^.{./.$.).!.y y u g n ",
"c 7 s 7 8 ].x x I I P _.;.H.0 a 8 s p i.f.b.^.{./.*.1.V y u i i g g b n f.+.K Y @._._.;.-.o o c a b t f.3.^.,.).*.$.U y h H h h ",
"o a k 0 7 o D.P x P @.@._.;.4.{.b.b.f.b.b.{.{.1.1.).-.y y H u h h i b n f Y X X X K _._.>.8.^.b.b.b.b.^.^.1.1.).*. .y y h h h h ",
"0 s k 0 a c d I.G K P K _.` +.;.8.-.{.c.^.c.1.$.1.*.H u u u H h h i n n b f Y X X X Y @.+.;.;.8.c.{.c.^.c.c.).).j.y u H u g i g ",
"c 0 s 0 8 0 s 7 t K P K @.` _.;.;.4.8.$.).*.$.).h.H H H H h i i g n J n 0 b 0 Y X X Y @.` +.+.>.4.a.-.$.$.$.).V H y H u g h h i ",
"s o 0 s 0 a 0 7 d d P I @.X Y +.+.+.>.>.a.[.0.H H h u h h g b b n n n f d 0 f a U X K Y +.Y +.` +.>.4.5.-.!.u H H u u i h h n b ",
"8 d p a 7 s 7 0 s 0 7 f I.Y X Y Y ` ` ;.4.n i i i h i h g h i g g n m f d b 0 d d m n Y X ` ;.` ` ` ;.G.g h u u h u i h n g g h ",
"8 a o 0 7 s 7 0 7 0 0 b s d f b n d b J n b b J n g g i g i g n n f 0 b m f 0 m J a J s 0 b b n n f f b b n g i i h g h n g g n ",
"7 o 0 o m a s s 0 a 0 s J 0 m J s b d J d d 0 n b J b n b d m m d d f m d 0 f a m f f f n m a m m J J f b 0 d f f b n f f b m m ",
"8 t i 0 s a s p d m o d s 0 b d f 0 J s m b 0 m m b d f f b J t H J m f 0 J m s 0 0 J a d d 2.J f J.J.b 2.M.N.f O.n b O.0  .y f ",
"7 H H 0 a s a a 0 s s d 0 f 0 s m s f d f d f m 0 m m m s f J U U f m d d d d J b a 0 0 0 b 2.f J 2.2.9 f 2.T.f J.d 2.2.f U U b ",
"t t t t t t t t t t t t t t t t t t t  .t t t t t t t t t t t t t t t t t t t t t t t t t t t t t t t t t t t t t t t t t t t t ",
"                                                                                                                                ",
"                                                                                                                                ",
"                                                                                                                                ",
"                                                                                                                                ",
"                                                                                                                                ",
"                                                                                                                                ",
"                                                                                                                                ",
"                                                                                                                                ",
"                                                                                                                                ",
"                                                                                                                                ",
"                                                                                                                                ",
"                                                                                                                                ",
"                                                                                                                                ",
"                                                                                                                                "};
