/* XPM */
static const char * visard_65_32_xpm[] = {
"32 32 178 2",
"  	c None",
". 	c #000000",
"+ 	c #000000",
"@ 	c #000000",
"# 	c #000000",
"$ 	c #000000",
"% 	c #000000",
"& 	c #000000",
"* 	c #000000",
"= 	c #000000",
"- 	c #000000",
"; 	c #000000",
"> 	c #000000",
", 	c #000000",
"' 	c #000000",
") 	c #000000",
"! 	c #000000",
"~ 	c #000000",
"{ 	c #000000",
"] 	c #000000",
"^ 	c #000000",
"/ 	c #000000",
"( 	c #000000",
"_ 	c #000000",
": 	c #CECECE",
"< 	c #B4B4B5",
"[ 	c #B1B1B2",
"} 	c #CFCFCF",
"| 	c #FEFEFE",
"1 	c #FEFEFE",
"2 	c #838283",
"3 	c #858485",
"4 	c #808080",
"5 	c #E2E2E3",
"6 	c #F3F3F3",
"7 	c #3B3A3B",
"8 	c #3C3B3C",
"9 	c #3E3D3E",
"0 	c #3B393A",
"a 	c #3A393A",
"b 	c #373636",
"c 	c #3D3C3D",
"d 	c #393839",
"e 	c #3F3E3F",
"f 	c #383737",
"g 	c #343334",
"h 	c #313031",
"i 	c #333233",
"j 	c #E9372D",
"k 	c #3E3C3D",
"l 	c #3E3D3C",
"m 	c #3A3938",
"n 	c #363435",
"o 	c #3D3B3C",
"p 	c #3D3C3C",
"q 	c #E7372D",
"r 	c #363734",
"s 	c #3C3A3B",
"t 	c #121212",
"u 	c #302F30",
"v 	c #E8372D",
"w 	c #E8392E",
"x 	c #E2372C",
"y 	c #2C2C2D",
"z 	c #2A2A26",
"A 	c #2E2F2C",
"B 	c #383836",
"C 	c #333331",
"D 	c #EC382D",
"E 	c #282922",
"F 	c #3F403E",
"G 	c #E5362B",
"H 	c #2E2D2E",
"I 	c #E03529",
"J 	c #393738",
"K 	c #D93429",
"L 	c #3A3B39",
"M 	c #EA382E",
"N 	c #E5382E",
"O 	c #30312E",
"P 	c #DC3428",
"Q 	c #EB372D",
"R 	c #ED382E",
"S 	c #2C2D29",
"T 	c #EB3A2F",
"U 	c #2A292B",
"V 	c #0E0E0E",
"W 	c #3B3C3A",
"X 	c #D4352A",
"Y 	c #D03429",
"Z 	c #242523",
"` 	c #CB3328",
" .	c #141415",
"..	c #1A1B16",
"+.	c #C63126",
"@.	c #D53226",
"#.	c #3A393B",
"$.	c #5E2A22",
"%.	c #171810",
"&.	c #23241D",
"*.	c #622A22",
"=.	c #1E1E1B",
"-.	c #672922",
";.	c #C03025",
">.	c #B93025",
",.	c #55261E",
"'.	c #DD372D",
").	c #582A23",
"!.	c #6C2B24",
"~.	c #414142",
"{.	c #4D251C",
"].	c #272629",
"^.	c #45231B",
"/.	c #5B261E",
"(.	c #802D25",
"_.	c #CF3125",
":.	c #202022",
"<.	c #7A2B24",
"[.	c #712A22",
"}.	c #872D26",
"|.	c #19181A",
"1.	c #512922",
"2.	c #FFFFFF",
"3.	c #3D221A",
"4.	c #B03026",
"5.	c #8E2E26",
"6.	c #303138",
"7.	c #EE392E",
"8.	c #A63027",
"9.	c #9D3027",
"0.	c #752C25",
"a.	c #952F27",
"b.	c #352019",
"c.	c #49271F",
"d.	c #2B2C34",
"e.	c #474549",
"f.	c #2D1F1A",
"g.	c #504E53",
"h.	c #734546",
"i.	c #281616",
"j.	c #60484B",
"k.	c #1D1313",
"l.	c #4E373A",
"m.	c #705458",
"n.	c #663939",
"o.	c #884B4C",
"p.	c #833C3B",
"q.	c #D44540",
"r.	c #363740",
"s.	c #826267",
"t.	c #A14444",
"u.	c #3C292B",
"v.	c #B27F83",
"w.	c #585760",
"x.	c #946B6F",
"y.	c #9B5758",
"z.	c #BE4543",
"A.	c #BE8B8F",
"B.	c #A67277",
"C.	c #CB979A",
"D.	c #B85457",
"E.	c #EC4C47",
"F.	c #F06666",
"G.	c #CE5454",
"H.	c #511917",
"I.	c #DE504E",
"J.	c #EBE8F0",
"K.	c #32384F",
"L.	c #D5696B",
"M.	c #D1CED5",
"N.	c #69616B",
"O.	c #BAB8BE",
"P.	c #757279",
"Q.	c #969498",
"R.	c #A4A2A7",
"S.	c #C59FDA",
"T.	c #87818F",
"U.	c #9C7FB8",
"                                                                ",
"                                                                ",
"                                                                ",
"                                                                ",
"                                                                ",
"                                                                ",
"                                                                ",
"7 s 9 9 9 l e 9 c e k l 8 9 s k c 8 9 a 0 a 8 8 9 9 a 7 o o 7 k ",
"9 e 7 9 s 9 7 8 e 7 9 c p a k 0 d s 0 9 9 9 c 7 d d e o 0 a l 0 ",
"p 8 9 8 e c 9 Y '.z.8 8 9 e a 9 9 k c a 8 7 z.X Y e c c l e s o ",
"9 k 8 8 V N N T N w M x e k 7 k p c 7 8 N w v G q M N |.p 9 k 0 ",
"9 e 8 5.w 7.T T 7.7.N w T 7 8 p 8 c 7 q q N w w D R M M '.s 9 7 ",
"c 8 c D w 7.9 =.C A s.v v N c 8 7 7 j v M A...=.O 7 x q j 7 7 8 ",
"e e w T R V z A F F B s.I x ].7 c V M M e.Z A ~.F L H 9.x N s a ",
"7 7 j M C.z O %.E S W C <.5.K 8 9 j Q Q :.A %.E z F b m.a.4.d 8 ",
"9 c R Q l A ..E t O L O n.<.a.n 8 G q D.z Z ..t &.B m k (.5.g b ",
"o 8 v I k A =.&.V F L r 1.!.(.h b Y I z.S ..A |.&.B b s !.(.h g ",
"a 8 v x o.A ~.g L F B r ,.$.(.i n 9.X P z O C W F m r f.*.0.u g ",
"8 7 G I P g l l L m r b.1.*.].h n  .` @.!.W F W m r a ^.$.!.H h ",
"8 c s I I _.b L L ~.t ^.*.-.H H g n ;.P _.z r.W m y ^.,.*.U h u ",
"0 7 7 E.I _._.4.^.^.c.c.$.y H i g n d K K +.;.<.b.c.,.$.j.H u g ",
"k 8 a a U P @.` >.4.!.).H H g h g n b a Y X ` +.4.[.*.y H u h i ",
"o s 0 a 0 f f I.` V b g g h i g f J d d m a t +.G.b n g h g g g ",
"d s d s a 0 d d s f 0 m J b J n b f J m 0 a m b b n d f n n f f ",
"a m 8 s a o s 0 0 s 0 s J a d J a J 0 f f d d 2.d 0 b b d J b 0 ",
"                                                                ",
"                                                                ",
"                                                                ",
"                                                                ",
"                                                                ",
"                                                                ",
"                                                                "};
